<svg width="25" height="27" viewBox="0 0 25 27" fill="none" xmlns="http://www.w3.org/2000/svg">
<path d="M12.5056 6.98632C8.95647 6.98632 6.09374 9.89199 6.09374 13.4943C6.09374 17.0967 8.95647 20.0023 12.5056 20.0023C16.0547 20.0023 18.9174 17.0967 18.9174 13.4943C18.9174 9.89199 16.0547 6.98632 12.5056 6.98632ZM12.5056 17.7254C10.212 17.7254 8.33705 15.8279 8.33705 13.4943C8.33705 11.1607 10.2065 9.26328 12.5056 9.26328C14.8047 9.26328 16.6741 11.1607 16.6741 13.4943C16.6741 15.8279 14.7991 17.7254 12.5056 17.7254V17.7254ZM20.6752 6.72011C20.6752 7.56406 20.0056 8.23808 19.1797 8.23808C18.3482 8.23808 17.6841 7.55839 17.6841 6.72011C17.6841 5.88183 18.3538 5.20214 19.1797 5.20214C20.0056 5.20214 20.6752 5.88183 20.6752 6.72011ZM24.9219 8.26074C24.827 6.22734 24.3694 4.42617 22.9018 2.94218C21.4397 1.4582 19.6652 0.993744 17.6618 0.891791C15.5971 0.772845 9.40848 0.772845 7.34374 0.891791C5.34598 0.98808 3.57142 1.45253 2.10379 2.93652C0.636157 4.4205 0.184148 6.22167 0.083702 8.25507C-0.0334854 10.3508 -0.0334854 16.6322 0.083702 18.7279C0.178568 20.7613 0.636157 22.5625 2.10379 24.0465C3.57142 25.5305 5.3404 25.9949 7.34374 26.0969C9.40848 26.2158 15.5971 26.2158 17.6618 26.0969C19.6652 26.0006 21.4397 25.5361 22.9018 24.0465C24.3638 22.5625 24.8214 20.7613 24.9219 18.7279C25.039 16.6322 25.039 10.3564 24.9219 8.26074V8.26074ZM22.2545 20.9766C21.8192 22.0867 20.9766 22.942 19.8772 23.3894C18.231 24.0521 14.3248 23.8992 12.5056 23.8992C10.6864 23.8992 6.77455 24.0465 5.13392 23.3894C4.04017 22.9476 3.19754 22.0924 2.75669 20.9766C2.10379 19.3057 2.25446 15.3408 2.25446 13.4943C2.25446 11.6478 2.10937 7.67734 2.75669 6.0121C3.19196 4.90195 4.03459 4.04667 5.13392 3.59921C6.78013 2.93652 10.6864 3.08945 12.5056 3.08945C14.3248 3.08945 18.2366 2.94218 19.8772 3.59921C20.971 4.04101 21.8136 4.89628 22.2545 6.0121C22.9074 7.683 22.7567 11.6478 22.7567 13.4943C22.7567 15.3408 22.9074 19.3113 22.2545 20.9766Z" fill="#019AF0"/>
</svg>
